<?xml version="1.0" encoding="UTF-8"?>
<!DOCTYPE svg PUBLIC "-//W3C//DTD SVG 1.1//EN" "http://www.w3.org/Graphics/SVG/1.1/DTD/svg11.dtd">
<!-- Creator: CorelDRAW 2019 (64-Bit) -->
<svg xmlns="http://www.w3.org/2000/svg" xml:space="preserve" width="1638px" height="1638px" version="1.1" style="shape-rendering:geometricPrecision; text-rendering:geometricPrecision; image-rendering:optimizeQuality; fill-rule:evenodd; clip-rule:evenodd"
viewBox="0 0 1771.85 1771.85"
 xmlns:xlink="http://www.w3.org/1999/xlink">
 <defs>
  <style type="text/css">
   <![CDATA[
    .fil1 {fill:#C95242}
    .fil0 {fill:#E05B49}
    .fil4 {fill:#E59D54}
    .fil3 {fill:#F5C258}
    .fil2 {fill:#FBD261}
   ]]>
  </style>
 </defs>
 <g id="Layer_x0020_1">
  <metadata id="CorelCorpID_0Corel-Layer"/>
  <g id="_2284405168384">
   <path class="fil0" d="M808.58 1768.39c-47.61,-54.95 -356.24,-349.37 -370.29,-373.29l-3.24 -3.03c2.61,-75.79 -1.07,-153.41 0.36,-229.44 1.24,-66.13 40.79,-115.93 101.64,-123.33 39.82,-4.84 61.51,8.43 88.35,24.14 30.95,18.11 47.4,22.86 91.07,24.09 36.2,1.02 73.29,7.95 109.09,0.32 57.94,-12.36 96.63,-53.63 120.11,-104.17 12.47,-26.85 20.65,-56.46 25.09,-88.23 16.61,-118.93 -5.46,-120.5 -50.24,-172.1 -69.71,-80.32 -124.51,-225.17 -118.37,-333.78l106.84 -4.6c4.38,14.19 1.23,14.81 6.15,21.2 2.61,-11.93 0.84,-9.48 -2.65,-22.41 18.14,9.5 57.71,54.49 75.03,71.81 36.78,36.78 204.83,200.28 213.69,216.71 20.72,9.58 34.34,14.11 50.28,28.01 6.71,5.85 12.7,12.27 18.93,19.18 9.87,10.96 6.93,13.3 17.72,20.16l434.97 433.53 11.92 -29.9c3.93,-13.5 6.46,-21.93 9.87,-35.11 20.24,-78.04 26.94,-146.19 26.95,-232.61 0.01,-194.84 -67.66,-376.42 -175.51,-520.08 -163.93,-218.35 -412.78,-345.28 -675.83,-355.46l-68.54 0c-83.06,3.19 -166.91,18.06 -249.38,45.43 -201.47,66.85 -370.91,207.1 -480.04,388.57 -76.54,127.26 -117.31,271.26 -122.55,416.97l0 64.28c5.8,162.52 55.69,324.4 149.49,464.86 46.41,69.51 120.39,152.16 188.12,202.93 9.72,7.29 16.98,12.64 25.75,19.24 47.25,35.55 111.79,72.3 167.08,95.93 75.45,32.26 193.3,70.18 278.14,70.18z"/>
   <path class="fil1" d="M799.36 1344.95c-20,0.27 -57.82,-20.33 -72.83,-29.72 -41.27,-25.78 -79.76,-58.38 -108.56,-99.07 -27.44,-38.76 -52.74,-21.49 -57.1,-1.15l-1.6 179.87 -120.98 0.22c14.05,23.92 322.68,318.34 370.29,373.29 6.78,1.35 13.76,2.49 20.9,3.46l128.91 0c115.19,-12 240.62,-50.98 323.2,-92.29 78.22,-39.13 110.11,-62.87 171.39,-112.38 85.36,-68.95 161.72,-163.25 213.91,-260.2 11.78,-21.87 55.1,-110.56 56.22,-133.82l-434.97 -433.53c13.5,40.9 24.57,33.75 40.81,115.04 25.15,125.85 -21.54,260.35 -92.91,353.62 -32.71,42.75 -107.91,112.27 -175.39,132.63 -80.94,24.41 -149.51,32.71 -232.96,15.09 -3.72,-0.79 -14.12,-2.83 -16.9,-3.86 -11.66,-4.35 -5.79,-1.52 -11.43,-7.2z"/>
   <path class="fil2" d="M435.05 1392.07l122.11 0c-0.21,-28.28 -4.91,-163.48 3.71,-177.06 4.36,-20.34 29.66,-37.61 57.1,1.15 28.8,40.69 67.29,73.29 108.56,99.07 15.01,9.39 52.83,29.99 72.83,29.72 42.2,9.78 135.07,-41.04 166.58,-70.91 7.09,-6.71 9.59,-8.5 16.58,-14.66 125.9,-110.95 189.49,-362.1 204.05,-534 2.18,-25.74 7.75,-43.47 -3.02,-56.37 -94.75,-25.23 -131.77,62.8 -202.58,-47.63 -30.48,-47.52 -73.95,-139.28 -65.83,-215.21 -4.92,-6.39 -1.77,-7.01 -6.15,-21.2l-106.84 4.6c-6.14,108.61 48.66,253.46 118.37,333.78 44.78,51.6 66.85,53.17 50.24,172.1 -4.44,31.77 -12.62,61.38 -25.09,88.23 -23.48,50.54 -62.17,91.81 -120.11,104.17 -35.8,7.63 -72.89,0.7 -109.09,-0.32 -43.67,-1.23 -60.12,-5.98 -91.07,-24.09 -26.84,-15.71 -48.53,-28.98 -88.35,-24.14 -60.85,7.4 -100.4,57.2 -101.64,123.33 -1.43,76.03 2.25,153.65 -0.36,229.44z"/>
   <path class="fil3" d="M799.36 1344.95c5.64,5.68 -0.23,2.85 11.43,7.2 2.78,1.03 13.18,3.07 16.9,3.86 83.45,17.62 152.02,9.32 232.96,-15.09 67.48,-20.36 142.68,-89.88 175.39,-132.63 71.37,-93.27 118.06,-227.77 92.91,-353.62 -16.24,-81.29 -27.31,-74.14 -40.81,-115.04 -10.79,-6.86 -7.85,-9.2 -17.72,-20.16 -6.23,-6.91 -12.22,-13.33 -18.93,-19.18 -15.94,-13.9 -29.56,-18.43 -50.28,-28.01l-17.66 -3.27c10.77,12.9 5.2,30.63 3.02,56.37 -14.56,171.9 -78.15,423.05 -204.05,534 -6.99,6.16 -9.49,7.95 -16.58,14.66 -31.51,29.87 -124.38,80.69 -166.58,70.91z"/>
   <path class="fil1" d="M915.14 406.17c-8.12,75.93 35.35,167.69 65.83,215.21 70.81,110.43 107.83,22.4 202.58,47.63l17.66 3.27c-8.86,-16.43 -176.91,-179.93 -213.69,-216.71 -17.32,-17.32 -56.89,-62.31 -75.03,-71.81 3.49,12.93 5.26,10.48 2.65,22.41z"/>
   <path class="fil4" d="M435.05 1392.07l3.24 3.03 120.98 -0.22 1.6 -179.87c-8.62,13.58 -3.92,148.78 -3.71,177.06l-122.11 0z"/>
  </g>
 </g>
</svg>
